<?xml version="1.0" encoding="utf-8"?>
<!-- Svg Vector Icons : http://www.onlinewebfonts.com/icon -->
<!DOCTYPE svg PUBLIC "-//W3C//DTD SVG 1.1//EN" "http://www.w3.org/Graphics/SVG/1.1/DTD/svg11.dtd">
<svg version="1.1" xmlns="http://www.w3.org/2000/svg" xmlns:xlink="http://www.w3.org/1999/xlink" x="0px" y="0px" viewBox="0 0 1000 1000" enable-background="new 0 0 1000 1000" xml:space="preserve">
<metadata> Svg Vector Icons : http://www.onlinewebfonts.com/icon </metadata>
<g><path d="M819.2,761.5L500.5,447L181.8,761.5c-9.7,9.7-20.8,17-33.3,21.9c-12.5,4.9-25.2,7.3-38,7.3c-12.8,0-25.3-2.4-37.5-7.3c-12.1-4.9-23.1-12.1-32.8-21.9C20.1,742,10,718.8,10,691.7c0-27.1,10.1-50.3,30.2-69.8l383.3-380.1c9.7-9.7,21.3-17.4,34.9-22.9c13.5-5.6,27.3-8.7,41.1-9.4s27.3,1,40.1,5.2c12.8,4.2,23.4,11.1,31.8,20.8l389.5,386.4c19.4,19.4,29.2,42.7,29.2,69.8c0,27.1-9.7,50.3-29.2,69.8c-9.7,9.7-20.8,17-33.3,21.9c-12.5,4.9-25.2,7.3-38,7.3c-12.8,0-25.3-2.4-37.5-7.3C839.9,778.5,828.9,771.2,819.2,761.5L819.2,761.5z"/></g>
</svg>